<?xml version="1.0" standalone="no"?>
<!DOCTYPE svg PUBLIC "-//W3C//DTD SVG 20010904//EN"
 "http://www.w3.org/TR/2001/REC-SVG-20010904/DTD/svg10.dtd">
<svg version="1.0" xmlns="http://www.w3.org/2000/svg"
 width="1024.000000pt" height="1024.000000pt" viewBox="0 0 1024.000000 1024.000000"
 preserveAspectRatio="xMidYMid meet">

<g transform="translate(0.000000,1024.000000) scale(0.100000,-0.100000)"
fill="#00BFFF" stroke="none">
<path d="M2155 7513 c-77 -7 -255 -44 -332 -69 -43 -14 -136 -54 -208 -89
-753 -372 -1061 -1275 -699 -2053 209 -449 628 -769 1124 -859 127 -23 391
-23 515 0 189 34 348 91 501 179 675 386 959 1201 673 1933 -121 310 -386 610
-685 775 -254 141 -590 210 -889 183z m430 -198 c175 -39 359 -118 503 -217
108 -74 265 -235 341 -347 79 -120 111 -182 155 -309 174 -501 61 -1044 -297
-1418 -121 -127 -236 -213 -382 -284 -435 -214 -953 -182 -1352 83 -261 174
-443 413 -543 716 -55 167 -74 301 -67 486 13 353 135 644 374 896 200 210
470 357 733 399 41 6 82 13 90 15 41 10 381 -5 445 -20z"/>
<path d="M2030 6939 c-308 -37 -540 -107 -635 -190 -69 -61 -69 -64 -75 -366
l-5 -272 30 28 c106 101 334 196 582 243 98 18 154 22 328 22 121 0 248 -5
300 -13 305 -44 592 -143 689 -237 l36 -35 0 262 c0 294 -1 301 -73 365 -81
74 -247 132 -497 175 -99 17 -176 22 -365 24 -132 2 -274 -1 -315 -6z"/>
<path d="M2080 6319 c-275 -31 -578 -142 -696 -254 -48 -45 -54 -55 -54 -92 0
-49 33 -94 90 -123 l37 -19 22 30 c12 16 25 29 29 29 4 0 7 -98 7 -218 l1
-217 32 -94 c75 -216 208 -364 413 -460 120 -57 201 -74 339 -74 138 -1 217
17 345 78 210 99 348 256 417 475 21 69 23 92 23 292 0 120 1 218 3 218 1 0
15 -13 30 -30 l27 -30 40 23 c46 26 85 79 85 116 0 135 -372 309 -752 350
-111 13 -328 12 -438 0z m373 -270 c34 -11 87 -36 118 -55 75 -45 181 -159
220 -237 54 -106 59 -154 10 -81 -32 46 -152 157 -216 200 -116 77 -259 110
-374 85 -125 -27 -280 -131 -389 -262 -32 -37 -58 -66 -60 -65 -6 7 60 150 89
193 72 105 179 183 309 224 80 26 213 25 293 -2z m-36 -285 c65 -31 106 -79
128 -150 19 -61 15 -101 -17 -177 -37 -86 -116 -137 -214 -137 -85 0 -133 18
-185 70 -124 124 -94 317 61 396 78 39 141 39 227 -2z"/>
<path d="M2230 5633 c-59 -53 -48 -153 20 -188 37 -19 64 -19 106 1 108 51 69
214 -51 214 -35 0 -52 -6 -75 -27z"/>
<path d="M7065 7089 c-299 -39 -486 -199 -532 -452 -35 -195 20 -376 149 -492
82 -74 172 -109 507 -199 221 -60 300 -108 331 -201 28 -84 -12 -197 -86 -247
-109 -73 -309 -76 -435 -7 -49 27 -103 99 -119 160 l-11 39 -196 0 -196 0 7
-55 c27 -235 210 -428 471 -496 124 -32 322 -37 450 -10 259 53 433 204 486
421 21 87 16 252 -10 330 -71 207 -195 291 -600 405 -129 36 -248 73 -265 82
-91 46 -128 127 -105 233 15 71 75 132 151 155 60 18 198 21 255 6 82 -23 140
-79 164 -158 l12 -43 184 0 183 0 0 33 c0 93 -68 235 -155 322 -73 73 -195
137 -305 159 -100 20 -248 27 -335 15z"/>
<path d="M5249 7080 c-226 -26 -409 -117 -565 -283 -191 -203 -283 -454 -271
-737 23 -535 404 -924 927 -947 407 -18 746 176 916 522 71 147 96 245 101
415 6 172 -5 258 -51 393 -45 130 -113 241 -215 349 -137 145 -288 230 -474
269 -110 22 -267 30 -368 19z m290 -365 c99 -24 192 -78 263 -154 120 -127
172 -267 172 -466 0 -200 -52 -339 -173 -468 -77 -81 -159 -130 -266 -157
-307 -78 -608 94 -707 404 -13 41 -21 103 -25 186 -5 107 -2 138 16 209 40
159 115 277 229 359 98 70 201 102 327 102 55 0 129 -7 164 -15z"/>
<path d="M8120 6106 l0 -956 190 0 190 0 0 325 0 325 148 0 c180 0 357 14 437
35 220 56 391 232 436 450 18 88 16 267 -4 342 -54 204 -203 347 -427 409 -57
16 -120 18 -517 22 l-453 3 0 -955z m892 577 c25 -11 65 -40 87 -63 103 -107
89 -308 -27 -397 -69 -53 -122 -63 -359 -70 l-213 -6 0 282 0 282 233 -3 c213
-3 236 -5 279 -25z"/>
<path d="M4488 4659 c-111 -17 -188 -115 -188 -236 0 -86 15 -134 59 -184 44
-53 101 -78 170 -79 121 0 206 59 237 166 58 200 -80 365 -278 333z m130 -96
c43 -32 62 -66 69 -120 15 -134 -52 -213 -172 -204 -78 7 -127 74 -126 172 0
87 34 145 101 172 27 11 102 0 128 -20z"/>
<path d="M8210 4659 c-152 -30 -231 -219 -156 -374 43 -86 109 -125 213 -125
87 0 163 43 200 114 17 32 10 43 -32 51 -26 5 -32 2 -47 -24 -47 -85 -196 -85
-248 1 -25 41 -34 116 -20 166 22 84 95 133 176 118 36 -7 95 -55 105 -85 4
-11 11 -12 42 -2 42 14 45 23 17 68 -25 41 -83 79 -140 92 -51 12 -49 12 -110
0z"/>
<path d="M4851 4652 c2 -5 44 -118 94 -251 l89 -241 41 0 40 0 91 248 91 247
-40 3 c-22 2 -43 -2 -47 -8 -4 -6 -35 -92 -70 -192 -35 -100 -65 -177 -67
-172 -2 5 -32 90 -67 189 l-64 180 -47 3 c-26 2 -46 -1 -44 -6z"/>
<path d="M5410 4410 l0 -250 155 0 155 0 0 40 0 40 -110 0 -110 0 0 70 0 70
100 0 100 0 0 35 0 35 -100 0 -100 0 0 65 0 65 105 0 105 0 0 40 0 40 -150 0
-150 0 0 -250z"/>
<path d="M5880 4410 l0 -251 43 3 42 3 0 93 0 92 36 0 c34 0 37 -3 90 -95 l54
-95 48 0 c26 0 47 3 47 8 0 4 -27 49 -59 101 l-58 95 31 15 c72 37 98 135 54
201 -46 67 -66 75 -204 79 l-124 3 0 -252z m235 145 c30 -30 32 -64 4 -99 -18
-23 -27 -26 -87 -26 l-67 0 0 75 0 75 63 0 c53 0 67 -4 87 -25z"/>
<path d="M6346 4628 c3 -18 32 -130 64 -248 l57 -215 43 0 43 0 58 175 c32 96
60 168 63 160 8 -19 106 -333 106 -337 0 -2 20 -3 44 -3 l43 0 51 178 c28 97
60 210 71 250 l20 72 -42 0 -43 0 -49 -185 c-27 -102 -52 -179 -55 -173 -4 7
-31 91 -60 186 l-54 172 -36 0 -35 0 -54 -173 c-30 -94 -57 -175 -60 -179 -4
-4 -27 73 -51 172 l-44 180 -44 0 -44 0 8 -32z"/>
<path d="M7146 4422 c-49 -130 -92 -243 -94 -249 -3 -9 9 -13 41 -13 l45 0 22
60 22 60 103 0 103 0 22 -60 22 -60 44 0 c24 0 44 3 44 7 0 4 -42 117 -92 250
l-93 243 -50 0 -50 0 -89 -238z m189 1 l24 -63 -74 0 -74 0 26 68 c14 37 30
80 36 97 l11 30 14 -34 c7 -19 24 -63 37 -98z"/>
<path d="M7560 4620 l0 -40 73 0 72 0 0 -207 0 -208 43 -3 42 -3 0 210 0 211
75 0 75 0 0 40 0 40 -190 0 -190 0 0 -40z"/>
<path d="M8630 4410 l0 -250 45 0 45 0 0 110 0 111 108 -3 107 -3 1 -105 2
-105 41 -3 41 -3 0 250 0 251 -42 0 -43 0 3 -100 3 -100 -110 0 -111 0 0 100
0 100 -45 0 -45 0 0 -250z"/>
<path d="M1297 3896 c-46 -17 -64 -32 -83 -67 -20 -39 -18 -88 6 -126 21 -35
48 -51 127 -77 71 -23 103 -50 103 -86 0 -83 -153 -75 -181 9 -5 13 -79 -5
-79 -18 0 -23 51 -79 90 -98 55 -28 120 -29 177 -4 71 33 100 107 68 174 -20
44 -44 60 -126 87 -92 31 -109 44 -109 84 0 42 18 57 70 58 42 0 75 -19 85
-52 5 -15 11 -16 45 -6 22 5 40 13 40 17 0 17 -48 75 -76 91 -43 25 -111 31
-157 14z"/>
<path d="M7538 3896 c-101 -27 -168 -118 -168 -229 0 -80 16 -129 59 -178 88
-103 247 -108 341 -10 52 53 70 102 70 187 0 113 -61 199 -162 229 -61 18 -77
18 -140 1z m148 -85 c42 -26 67 -83 68 -156 2 -106 -55 -170 -150 -169 -94 0
-148 62 -148 169 0 112 55 175 154 175 26 0 58 -8 76 -19z"/>
<path d="M1680 3655 l0 -246 151 3 152 3 1 38 1 37 -112 0 -113 0 0 65 0 65
100 0 100 0 0 40 0 40 -100 0 -100 0 0 60 0 59 107 3 107 3 4 38 3 37 -150 0
-151 0 0 -245z"/>
<path d="M2130 3654 l0 -245 43 3 42 3 0 168 c0 92 1 167 1 167 1 0 54 -76
118 -170 l117 -170 40 0 39 0 0 245 0 245 -40 0 -40 0 -2 -171 -3 -172 -115
171 -115 171 -42 1 -43 0 0 -246z"/>
<path d="M2652 3863 l3 -38 70 -5 70 -5 0 -200 0 -200 43 -3 42 -3 0 205 0
206 70 0 70 0 0 40 0 40 -186 0 -185 0 3 -37z"/>
<path d="M3160 3654 l0 -245 40 3 41 3 2 243 2 242 -42 0 -43 0 0 -246z"/>
<path d="M3410 3655 l0 -245 40 0 40 0 2 169 3 170 115 -169 c114 -169 115
-170 153 -170 l37 0 0 245 0 245 -40 0 -41 0 3 -170 c2 -94 1 -170 -2 -170 -3
1 -56 77 -118 170 l-113 170 -40 0 -39 0 0 -245z"/>
<path d="M3972 3658 l3 -243 153 -3 152 -3 0 41 0 40 -110 0 -110 0 0 65 0 65
100 0 100 0 0 40 0 40 -100 0 -100 0 0 60 0 60 105 0 105 0 0 40 0 40 -150 0
-150 0 2 -242z"/>
<path d="M4430 3655 l0 -245 150 0 150 0 0 40 0 40 -110 0 -110 0 0 205 0 205
-40 0 -40 0 0 -245z"/>
<path d="M5090 3655 l0 -245 45 0 45 0 0 90 0 90 71 0 c87 0 136 24 169 82 17
31 21 50 17 85 -6 57 -31 92 -87 121 -38 19 -60 22 -152 22 l-108 0 0 -245z
m242 145 c26 -32 23 -86 -7 -115 -20 -21 -34 -25 -85 -25 l-60 0 0 86 0 87 67
-6 c53 -4 71 -10 85 -27z"/>
<path d="M5570 3655 l0 -245 150 0 150 0 0 40 0 40 -105 0 -105 0 0 205 0 205
-45 0 -45 0 0 -245z"/>
<path d="M6132 3848 c-11 -29 -52 -138 -91 -242 -39 -104 -71 -191 -71 -193 0
-2 19 -3 42 -1 41 3 43 4 63 58 l21 55 104 0 103 0 20 -57 19 -58 45 0 c39 0
44 2 38 18 -4 9 -46 119 -94 244 l-86 228 -47 0 -47 0 -19 -52z m107 -151 c18
-49 31 -90 28 -93 -2 -3 -36 -4 -74 -2 l-70 3 35 98 c19 54 38 94 42 90 4 -4
21 -48 39 -96z"/>
<path d="M6460 3860 l0 -40 70 0 70 0 0 -205 0 -205 40 0 40 0 0 205 0 205 75
0 75 0 0 40 0 40 -185 0 -185 0 0 -40z"/>
<path d="M6950 3655 l0 -245 45 0 45 0 0 105 0 105 95 0 95 0 0 35 0 35 -95 0
-95 0 0 65 0 65 105 0 105 0 0 40 0 40 -150 0 -150 0 0 -245z"/>
<path d="M7990 3655 l0 -245 40 0 40 0 0 95 0 95 38 0 c36 0 38 -2 90 -95 l53
-95 45 0 c24 0 44 2 44 4 0 5 -49 92 -91 162 l-19 32 33 20 c63 37 86 135 47
200 -33 53 -86 72 -212 72 l-108 0 0 -245z m224 154 c20 -15 26 -29 26 -57 0
-62 -28 -82 -114 -82 l-56 0 0 73 c0 41 3 77 7 80 3 4 30 7 58 7 38 0 60 -6
79 -21z"/>
<path d="M8480 3655 l0 -245 40 0 40 0 2 176 3 177 71 -169 71 -169 34 0 34 0
70 173 70 174 3 -181 2 -181 40 0 40 0 0 245 0 245 -54 0 -54 0 -52 -127 c-29
-71 -62 -152 -74 -181 l-22 -52 -78 180 -78 180 -54 0 -54 0 0 -245z"/>
</g>
</svg>
