<?xml version="1.0"?>
<svg width="308" height="309" xmlns="http://www.w3.org/2000/svg" xmlns:svg="http://www.w3.org/2000/svg" preserveAspectRatio="xMidYMid meet" version="1.0">
 <g class="layer">
  <title>Layer 1</title>
  <g id="svg_36">
   <path d="m139.05,0.58c-7.7,0.7 -25.5,4.4 -33.2,6.9c-4.3,1.4 -13.6,5.4 -20.8,8.9c-75.3,37.2 -106.1,127.5 -69.9,205.3c20.9,44.9 62.8,76.9 112.4,85.9c12.7,2.3 39.1,2.3 51.5,0c18.9,-3.4 34.8,-9.1 50.1,-17.9c67.5,-38.6 95.9,-120.1 67.3,-193.3c-12.1,-31 -38.6,-61 -68.5,-77.5c-25.4,-14.1 -59,-21 -88.9,-18.3zm43,19.8c17.5,3.9 35.9,11.8 50.3,21.7c10.8,7.4 26.5,23.5 34.1,34.7c7.9,12 11.1,18.2 15.5,30.9c17.4,50.1 6.1,104.4 -29.7,141.8c-12.1,12.7 -23.6,21.3 -38.2,28.4c-43.5,21.4 -95.3,18.2 -135.2,-8.3c-26.1,-17.4 -44.3,-41.3 -54.3,-71.6c-5.5,-16.7 -7.4,-30.1 -6.7,-48.6c1.3,-35.3 13.5,-64.4 37.4,-89.6c20,-21 47,-35.7 73.3,-39.9c4.1,-0.6 8.2,-1.3 9,-1.5c4.1,-1 38.1,0.5 44.5,2z" fill="#00bfff" id="svg_2"/>
   <path d="m126.55,57.98c-30.8,3.7 -54,10.7 -63.5,19c-6.9,6.1 -6.9,6.4 -7.5,36.6l-0.5,27.2l3,-2.8c10.6,-10.1 33.4,-19.6 58.2,-24.3c9.8,-1.8 15.4,-2.2 32.8,-2.2c12.1,0 24.8,0.5 30,1.3c30.5,4.4 59.2,14.3 68.9,23.7l3.6,3.5l0,-26.2c0,-29.4 -0.1,-30.1 -7.3,-36.5c-8.1,-7.4 -24.7,-13.2 -49.7,-17.5c-9.9,-1.7 -17.6,-2.2 -36.5,-2.4c-13.2,-0.2 -27.4,0.1 -31.5,0.6z" fill="#00bfff" id="svg_3"/>
   <path d="m131.55,119.98c-27.5,3.1 -57.8,14.2 -69.6,25.4c-4.8,4.5 -5.4,5.5 -5.4,9.2c0,4.9 3.3,9.4 9,12.3l3.7,1.9l2.2,-3c1.2,-1.6 2.5,-2.9 2.9,-2.9c0.4,0 0.7,9.8 0.7,21.8l0.1,21.7l3.2,9.4c7.5,21.6 20.8,36.4 41.3,46c12,5.7 20.1,7.4 33.9,7.4c13.8,0.1 21.7,-1.7 34.5,-7.8c21,-9.9 34.8,-25.6 41.7,-47.5c2.1,-6.9 2.3,-9.2 2.3,-29.2c0,-12 0.1,-21.8 0.3,-21.8c0.1,0 1.5,1.3 3,3l2.7,3l4,-2.3c4.6,-2.6 8.5,-7.9 8.5,-11.6c0,-13.5 -37.2,-30.9 -75.2,-35c-11.1,-1.3 -32.8,-1.2 -43.8,0zm37.3,27c3.4,1.1 8.7,3.6 11.8,5.5c7.5,4.5 18.1,15.9 22,23.7c5.4,10.6 5.9,15.4 1,8.1c-3.2,-4.6 -15.2,-15.7 -21.6,-20c-11.6,-7.7 -25.9,-11 -37.4,-8.5c-12.5,2.7 -28,13.1 -38.9,26.2c-3.2,3.7 -5.8,6.6 -6,6.5c-0.6,-0.7 6,-15 8.9,-19.3c7.2,-10.5 17.9,-18.3 30.9,-22.4c8,-2.6 21.3,-2.5 29.3,0.2zm-3.6,28.5c6.5,3.1 10.6,7.9 12.8,15c1.9,6.1 1.5,10.1 -1.7,17.7c-3.7,8.6 -11.6,13.7 -21.4,13.7c-8.5,0 -13.3,-1.8 -18.5,-7c-12.4,-12.4 -9.4,-31.7 6.1,-39.6c7.8,-3.9 14.1,-3.9 22.7,0.2z" fill="#00bfff" id="svg_4"/>
   <path d="m146.55,188.58c-5.9,5.3 -4.8,15.3 2,18.8c3.7,1.9 6.4,1.9 10.6,-0.1c10.8,-5.1 6.9,-21.4 -5.1,-21.4c-3.5,0 -5.2,0.6 -7.5,2.7z" fill="#00bfff" id="svg_5"/>
  </g>
 </g>
</svg>